<svg width="196" height="41" viewBox="0 0 196 41" fill="none" xmlns="http://www.w3.org/2000/svg">
<path d="M157.795 33C157.209 33 156.916 32.707 156.916 32.1211V12.2578C156.916 11.6719 157.209 11.3789 157.795 11.3789H160.139C160.725 11.3789 161.018 11.6719 161.018 12.2578V23.0244C161.018 23.415 160.998 23.8057 160.959 24.1963H161.018L165.661 18.2197C165.974 17.8193 166.354 17.6191 166.804 17.6191H169.206C170.104 17.6191 170.256 17.9805 169.66 18.7031L165.236 24.0498L170.363 31.916C170.832 32.6387 170.681 33 169.909 33H167.404C166.916 33 166.516 32.7461 166.203 32.2383L162.878 26.8916L161.018 29.1328V32.1211C161.018 32.707 160.725 33 160.139 33H157.795Z" fill="#D77F23"/>
<path d="M138.43 25.3096C138.43 22.8193 139.069 20.8662 140.349 19.4502C141.638 18.0342 143.552 17.3262 146.091 17.3262C148.63 17.3262 150.539 18.0342 151.818 19.4502C153.107 20.8662 153.752 22.8193 153.752 25.3096C153.752 27.7998 153.107 29.7529 151.818 31.1689C150.539 32.585 148.63 33.293 146.091 33.293C143.552 33.293 141.638 32.585 140.349 31.1689C139.069 29.7529 138.43 27.7998 138.43 25.3096ZM142.766 25.3096C142.766 27.165 143.049 28.4834 143.615 29.2646C144.191 30.0361 145.017 30.4219 146.091 30.4219C147.165 30.4219 147.985 30.0361 148.552 29.2646C149.128 28.4834 149.416 27.165 149.416 25.3096C149.416 23.4541 149.128 22.1406 148.552 21.3691C147.985 20.5879 147.165 20.1973 146.091 20.1973C145.017 20.1973 144.191 20.5879 143.615 21.3691C143.049 22.1406 142.766 23.4541 142.766 25.3096Z" fill="#D77F23"/>
<path d="M120.764 25.3096C120.764 22.8193 121.403 20.8662 122.683 19.4502C123.972 18.0342 125.886 17.3262 128.425 17.3262C130.964 17.3262 132.873 18.0342 134.152 19.4502C135.441 20.8662 136.086 22.8193 136.086 25.3096C136.086 27.7998 135.441 29.7529 134.152 31.1689C132.873 32.585 130.964 33.293 128.425 33.293C125.886 33.293 123.972 32.585 122.683 31.1689C121.403 29.7529 120.764 27.7998 120.764 25.3096ZM125.1 25.3096C125.1 27.165 125.383 28.4834 125.949 29.2646C126.525 30.0361 127.351 30.4219 128.425 30.4219C129.499 30.4219 130.319 30.0361 130.886 29.2646C131.462 28.4834 131.75 27.165 131.75 25.3096C131.75 23.4541 131.462 22.1406 130.886 21.3691C130.319 20.5879 129.499 20.1973 128.425 20.1973C127.351 20.1973 126.525 20.5879 125.949 21.3691C125.383 22.1406 125.1 23.4541 125.1 25.3096Z" fill="#D77F23"/>
<path d="M105.002 33C104.416 33 104.123 32.707 104.123 32.1211V12.2578C104.123 11.6719 104.416 11.3789 105.002 11.3789H107.346C107.932 11.3789 108.225 11.6719 108.225 12.2578V18.1758C108.225 18.5664 108.205 18.957 108.166 19.3477H108.225C108.732 18.5078 109.299 17.9609 109.924 17.707C110.549 17.4531 111.301 17.3262 112.18 17.3262C114.475 17.3262 116.086 18.1221 117.014 19.7139C117.951 21.2959 118.42 23.1611 118.42 25.3096C118.42 27.458 117.951 29.3281 117.014 30.9199C116.086 32.502 114.475 33.293 112.18 33.293C111.301 33.293 110.549 33.166 109.924 32.9121C109.299 32.6582 108.732 32.1113 108.225 31.2715H108.166L108.107 32.1211C108.068 32.707 107.805 33 107.316 33H105.002ZM108.225 25.9688C108.225 27.2871 108.483 28.3613 109.001 29.1914C109.528 30.0117 110.158 30.4219 110.891 30.4219C112.209 30.4219 113.068 29.9629 113.469 29.0449C113.879 28.1172 114.084 26.8721 114.084 25.3096C114.084 23.7471 113.879 22.5068 113.469 21.5889C113.068 20.6611 112.209 20.1973 110.891 20.1973C110.158 20.1973 109.528 20.6123 109.001 21.4424C108.483 22.2627 108.225 23.332 108.225 24.6504V25.9688Z" fill="#D77F23"/>
<path d="M86.1055 25.3096C86.1055 22.8389 86.7207 20.8906 87.9512 19.4648C89.1914 18.0391 90.9395 17.3262 93.1953 17.3262C95.8125 17.3262 97.7559 18 99.0254 19.3477C100.295 20.6953 100.93 22.8633 100.93 25.8516C100.93 26.4375 100.656 26.7305 100.109 26.7305H90.4414C90.5977 28.3516 90.998 29.3721 91.6426 29.792C92.2871 30.2119 93.0342 30.4219 93.8838 30.4219C94.6943 30.4219 95.3145 30.3145 95.7441 30.0996C96.1738 29.8848 96.5352 29.5918 96.8281 29.2207C97.1602 28.791 97.5703 28.7227 98.0586 29.0156L99.5234 29.9092C100.1 30.2607 100.183 30.6807 99.7725 31.1689C99.1768 31.8818 98.4785 32.4141 97.6777 32.7656C96.877 33.1172 95.6123 33.293 93.8838 33.293C91.0811 33.293 89.084 32.5801 87.8926 31.1543C86.7012 29.7285 86.1055 27.7803 86.1055 25.3096ZM90.4561 23.8008H96.8281C96.8281 22.7461 96.5645 21.8867 96.0371 21.2227C95.5098 20.5488 94.6699 20.2119 93.5176 20.2119C92.5996 20.2119 91.8721 20.5342 91.335 21.1787C90.7979 21.8135 90.5049 22.6875 90.4561 23.8008Z" fill="white"/>
<path d="M74.7236 20.5488C74.1475 20.5488 73.8594 20.3047 73.8594 19.8164V18.3516C73.8594 17.8633 74.1475 17.6191 74.7236 17.6191H75.7197V17.1064C75.7197 16.667 75.8223 16.2666 76.0273 15.9053L77.1553 13.9277C77.3701 13.5566 77.624 13.3711 77.917 13.3711H78.9424C79.5283 13.3711 79.8213 13.6641 79.8213 14.25V17.6191H82.1943C82.7705 17.6191 83.0586 17.8633 83.0586 18.3516V19.8164C83.0586 20.3047 82.7705 20.5488 82.1943 20.5488H79.8213V27.8145C79.8213 28.8105 79.8896 29.5283 80.0264 29.9678C80.1729 30.3975 80.5439 30.6123 81.1396 30.6123C81.4424 30.6123 81.7842 30.5635 82.165 30.4658C82.5459 30.3584 82.8438 30.2559 83.0586 30.1582C83.4004 30.002 83.625 30.1143 83.7324 30.4951L84.1719 32.165C84.2598 32.4971 84.1328 32.7412 83.791 32.8975C83.4688 33.0439 83.0244 33.1758 82.458 33.293C81.9014 33.4199 81.3398 33.4834 80.7734 33.4834C79.377 33.4834 78.1855 33.1953 77.1992 32.6191C76.2129 32.043 75.7197 30.8564 75.7197 29.0596V20.5488H74.7236Z" fill="white"/>
<path d="M56.75 25.3096C56.75 22.8193 57.3896 20.8662 58.6689 19.4502C59.958 18.0342 61.8721 17.3262 64.4111 17.3262C66.9502 17.3262 68.8594 18.0342 70.1387 19.4502C71.4277 20.8662 72.0723 22.8193 72.0723 25.3096C72.0723 27.7998 71.4277 29.7529 70.1387 31.1689C68.8594 32.585 66.9502 33.293 64.4111 33.293C61.8721 33.293 59.958 32.585 58.6689 31.1689C57.3896 29.7529 56.75 27.7998 56.75 25.3096ZM61.0859 25.3096C61.0859 27.165 61.3691 28.4834 61.9355 29.2646C62.5117 30.0361 63.3369 30.4219 64.4111 30.4219C65.4854 30.4219 66.3057 30.0361 66.8721 29.2646C67.4482 28.4834 67.7363 27.165 67.7363 25.3096C67.7363 23.4541 67.4482 22.1406 66.8721 21.3691C66.3057 20.5879 65.4854 20.1973 64.4111 20.1973C63.3369 20.1973 62.5117 20.5879 61.9355 21.3691C61.3691 22.1406 61.0859 23.4541 61.0859 25.3096Z" fill="white"/>
<path d="M40.8711 33C40.2852 33 39.9922 32.707 39.9922 32.1211V18.498C39.9922 17.9121 40.2852 17.6191 40.8711 17.6191H43.1855C43.7715 17.6191 44.0645 17.9121 44.0645 18.498V19.3477H44.123C44.5723 18.5762 45.1436 18.0488 45.8369 17.7656C46.5303 17.4727 47.3652 17.3262 48.3418 17.3262C49.8652 17.3262 51.125 17.8047 52.1211 18.7617C53.1172 19.7188 53.6152 21.4668 53.6152 24.0059V32.1211C53.6152 32.707 53.3223 33 52.7363 33H50.3926C49.8066 33 49.5137 32.707 49.5137 32.1211V25.0605C49.5137 22.9316 49.3672 21.5889 49.0742 21.0322C48.7812 20.4756 48.1514 20.1973 47.1846 20.1973C46.1592 20.1973 45.3877 20.5977 44.8701 21.3984C44.3525 22.1895 44.0938 23.8398 44.0938 26.3496V32.1211C44.0938 32.707 43.8008 33 43.2148 33H40.8711Z" fill="white"/>
<path d="M12.0258 24.5975C12.6295 24.5975 13.1195 24.1075 13.1195 23.5038V14.7538C13.1195 14.15 12.6295 13.66 12.0258 13.66C11.422 13.66 10.932 14.15 10.932 14.7538V23.5038C10.932 24.1075 11.422 24.5975 12.0258 24.5975Z" fill="url(#paint0_linear_4_402)"/>
<path d="M17.815 24.2771C18.0283 24.4909 18.3083 24.5975 18.5883 24.5975C18.8683 24.5975 19.1483 24.4909 19.3616 24.2771C19.7887 23.8499 19.7887 23.1576 19.3616 22.7305L16.0803 19.4492C15.6537 19.0221 14.9603 19.0221 14.5337 19.4492C14.1066 19.8763 14.1066 20.5687 14.5337 20.9958L17.815 24.2771Z" fill="url(#paint1_linear_4_402)"/>
<path d="M25.1508 15.8475C25.7545 15.8475 26.2445 15.3575 26.2445 14.7538V11.4725C26.2445 10.8688 25.7545 10.3788 25.1508 10.3788C24.547 10.3788 24.057 10.8688 24.057 11.4725V14.7538C24.057 15.3575 24.547 15.8475 25.1508 15.8475Z" fill="url(#paint2_linear_4_402)"/>
<path d="M26.2445 35.535C26.2445 36.1388 26.7345 36.6288 27.3383 36.6288C27.942 36.6288 28.432 36.1388 28.432 35.535V15.8475C28.432 15.2438 27.942 14.7538 27.3383 14.7538C26.7345 14.7538 26.2445 15.2438 26.2445 15.8475V35.535Z" fill="url(#paint3_linear_4_402)"/>
<path d="M7.65079 35.535C8.25454 35.535 8.74454 35.045 8.74454 34.4413V12.5663C8.74454 11.9625 8.25454 11.4725 7.65079 11.4725C7.04704 11.4725 6.55704 11.9625 6.55704 12.5663V34.4413C6.55704 35.045 7.04704 35.535 7.65079 35.535Z" fill="url(#paint4_linear_4_402)"/>
<path d="M18.5883 24.5975C19.192 24.5975 19.682 24.1075 19.682 23.5038V14.7538C19.682 14.15 19.192 13.66 18.5883 13.66C17.9845 13.66 17.4945 14.15 17.4945 14.7538V23.5038C17.4945 24.1075 17.9845 24.5975 18.5883 24.5975Z" fill="url(#paint5_linear_4_402)"/>
<path d="M11.2525 24.2771C11.4658 24.4909 11.7458 24.5975 12.0258 24.5975C12.3058 24.5975 12.5858 24.4909 12.7991 24.2771L16.0803 20.9958C16.5074 20.5687 16.5074 19.8763 16.0803 19.4492C15.6537 19.0221 14.9603 19.0221 14.5337 19.4492L11.2525 22.7305C10.8254 23.1576 10.8254 23.8499 11.2525 24.2771Z" fill="url(#paint6_linear_4_402)"/>
<path d="M24.057 11.471V11.472C24.057 12.0758 24.547 12.5658 25.1508 12.5658C25.7545 12.5658 26.2445 12.0758 26.2445 11.472C26.2445 10.2656 25.2634 9.28455 24.057 9.28455C23.4533 9.28455 22.9633 9.77345 22.9633 10.3777C22.9633 10.982 23.4533 11.471 24.057 11.471Z" fill="url(#paint7_linear_4_402)"/>
<path d="M25.1508 14.7527C25.1508 15.357 25.6408 15.846 26.2445 15.846V15.847C26.2445 16.4508 26.7345 16.9408 27.3383 16.9408C27.942 16.9408 28.432 16.4508 28.432 15.847C28.432 14.6406 27.4509 13.6595 26.2445 13.6595C25.6408 13.6601 25.1508 14.149 25.1508 14.7527Z" fill="url(#paint8_linear_4_402)"/>
<path d="M27.3394 34.4413C26.7351 34.4413 26.2462 34.9313 26.2462 35.535H26.2445C25.6408 35.535 25.1508 36.025 25.1508 36.6288C25.1508 37.2325 25.6408 37.7225 26.2445 37.7225C27.4509 37.7225 28.432 36.7414 28.432 35.535C28.432 34.9307 27.9431 34.4413 27.3394 34.4413Z" fill="url(#paint9_linear_4_402)"/>
<path d="M9.83829 37.7225C10.442 37.7225 10.932 37.2325 10.932 36.6288C10.932 36.025 10.442 35.535 9.83829 35.535C9.23508 35.535 8.74454 35.0445 8.74454 34.4413C8.74454 33.8375 8.25454 33.3475 7.65079 33.3475C7.04704 33.3475 6.55704 33.8375 6.55704 34.4413C6.55704 36.2503 8.02922 37.7225 9.83829 37.7225Z" fill="url(#paint10_linear_4_402)"/>
<path d="M9.83829 15.8475C10.442 15.8475 10.932 15.3575 10.932 14.7538C10.932 14.15 10.442 13.66 9.83829 13.66C9.24547 13.66 8.74454 13.1591 8.74454 12.5663C8.74454 11.9735 9.24547 11.4725 9.83829 11.4725C10.442 11.4725 10.932 10.9825 10.932 10.3788C10.932 9.77503 10.442 9.28503 9.83829 9.28503C8.02868 9.28503 6.55704 10.7567 6.55704 12.5663C6.55704 14.3759 8.02922 15.8475 9.83829 15.8475Z" fill="url(#paint11_linear_4_402)"/>
<path d="M9.83829 11.4725H24.057C24.6608 11.4725 25.1508 10.9825 25.1508 10.3788C25.1508 9.77503 24.6608 9.28503 24.057 9.28503H9.83829C9.23454 9.28503 8.74454 9.77503 8.74454 10.3788C8.74454 10.9825 9.23454 11.4725 9.83829 11.4725Z" fill="url(#paint12_linear_4_402)"/>
<path d="M9.83829 15.8475H26.2445C26.8483 15.8475 27.3383 15.3575 27.3383 14.7538C27.3383 14.15 26.8483 13.66 26.2445 13.66H9.83829C9.23454 13.66 8.74454 14.15 8.74454 14.7538C8.74454 15.3575 9.23454 15.8475 9.83829 15.8475Z" fill="url(#paint13_linear_4_402)"/>
<path d="M9.83829 37.7225H26.2445C26.8483 37.7225 27.3383 37.2325 27.3383 36.6288C27.3383 36.025 26.8483 35.535 26.2445 35.535H9.83829C9.23454 35.535 8.74454 36.025 8.74454 36.6288C8.74454 37.2325 9.23454 37.7225 9.83829 37.7225Z" fill="url(#paint14_linear_4_402)"/>
<defs>
<linearGradient id="paint0_linear_4_402" x1="12.0258" y1="38.2656" x2="12.0258" y2="8.73433" gradientUnits="userSpaceOnUse">
<stop stop-color="#D77F23"/>
<stop offset="1" stop-color="#FCC892"/>
</linearGradient>
<linearGradient id="paint1_linear_4_402" x1="16.9476" y1="38.2656" x2="16.9476" y2="8.73432" gradientUnits="userSpaceOnUse">
<stop stop-color="#D77F23"/>
<stop offset="1" stop-color="#FCC892"/>
</linearGradient>
<linearGradient id="paint2_linear_4_402" x1="25.1508" y1="38.2656" x2="25.1508" y2="8.73433" gradientUnits="userSpaceOnUse">
<stop stop-color="#D77F23"/>
<stop offset="1" stop-color="#FCC892"/>
</linearGradient>
<linearGradient id="paint3_linear_4_402" x1="27.3383" y1="38.2656" x2="27.3383" y2="8.73433" gradientUnits="userSpaceOnUse">
<stop stop-color="#D77F23"/>
<stop offset="1" stop-color="#FCC892"/>
</linearGradient>
<linearGradient id="paint4_linear_4_402" x1="7.65079" y1="38.2656" x2="7.65079" y2="8.73433" gradientUnits="userSpaceOnUse">
<stop stop-color="#D77F23"/>
<stop offset="1" stop-color="#FCC892"/>
</linearGradient>
<linearGradient id="paint5_linear_4_402" x1="18.5883" y1="38.2656" x2="18.5883" y2="8.73433" gradientUnits="userSpaceOnUse">
<stop offset="0.05" stop-color="#D77F23"/>
<stop offset="1" stop-color="#FCC892"/>
</linearGradient>
<linearGradient id="paint6_linear_4_402" x1="13.6664" y1="38.2656" x2="13.6664" y2="8.73432" gradientUnits="userSpaceOnUse">
<stop stop-color="#D77F23"/>
<stop offset="1" stop-color="#FCC892"/>
</linearGradient>
<linearGradient id="paint7_linear_4_402" x1="24.6039" y1="38.2656" x2="24.6039" y2="8.73439" gradientUnits="userSpaceOnUse">
<stop stop-color="#D77F23"/>
<stop offset="1" stop-color="#FCC892"/>
</linearGradient>
<linearGradient id="paint8_linear_4_402" x1="26.7914" y1="38.2656" x2="26.7914" y2="8.73439" gradientUnits="userSpaceOnUse">
<stop stop-color="#D77F23"/>
<stop offset="1" stop-color="#FCC892"/>
</linearGradient>
<linearGradient id="paint9_linear_4_402" x1="26.7914" y1="38.2656" x2="26.7914" y2="8.73433" gradientUnits="userSpaceOnUse">
<stop stop-color="#D77F23"/>
<stop offset="1" stop-color="#FCC892"/>
</linearGradient>
<linearGradient id="paint10_linear_4_402" x1="8.74454" y1="38.2656" x2="8.74454" y2="8.73433" gradientUnits="userSpaceOnUse">
<stop stop-color="#D77F23"/>
<stop offset="1" stop-color="#FCC892"/>
</linearGradient>
<linearGradient id="paint11_linear_4_402" x1="8.74454" y1="38.2656" x2="8.74454" y2="8.73433" gradientUnits="userSpaceOnUse">
<stop stop-color="#D77F23"/>
<stop offset="1" stop-color="#FCC892"/>
</linearGradient>
<linearGradient id="paint12_linear_4_402" x1="16.9477" y1="38.2656" x2="16.9477" y2="8.73433" gradientUnits="userSpaceOnUse">
<stop stop-color="#D77F23"/>
<stop offset="1" stop-color="#FCC892"/>
</linearGradient>
<linearGradient id="paint13_linear_4_402" x1="18.0414" y1="38.2656" x2="18.0414" y2="8.73433" gradientUnits="userSpaceOnUse">
<stop stop-color="#D77F23"/>
<stop offset="1" stop-color="#FCC892"/>
</linearGradient>
<linearGradient id="paint14_linear_4_402" x1="18.0414" y1="38.2656" x2="18.0414" y2="8.73433" gradientUnits="userSpaceOnUse">
<stop stop-color="#D77F23"/>
<stop offset="1" stop-color="#FCC892"/>
</linearGradient>
</defs>
</svg>
